<?xml version="1.0" standalone="no"?><!DOCTYPE svg PUBLIC "-//W3C//DTD SVG 1.1//EN" "http://www.w3.org/Graphics/SVG/1.1/DTD/svg11.dtd"><svg class="icon" width="50px" height="50.00px" viewBox="0 0 1024 1024" version="1.1" xmlns="http://www.w3.org/2000/svg"><path d="M512 967.0656c-251.392 0-455.0656-203.776-455.0656-455.0656S260.608 56.9344 512 56.9344s455.0656 203.776 455.0656 455.0656S763.392 967.0656 512 967.0656z m171.8272-432.8448c1.6384-1.3312 3.1744-2.7648 4.4032-4.4032 9.8304-12.288 7.7824-30.208-4.4032-39.936L473.2928 321.4336c-5.0176-3.9936-11.264-6.2464-17.8176-6.2464-15.6672 0-28.4672 12.6976-28.4672 28.4672v336.7936c0 6.4512 2.1504 12.6976 6.2464 17.8176 9.8304 12.288 27.7504 14.2336 39.936 4.4032l210.6368-168.448z" fill="#ffffff" /></svg>