<?xml version="1.0" standalone="no"?><!DOCTYPE svg PUBLIC "-//W3C//DTD SVG 1.1//EN" "http://www.w3.org/Graphics/SVG/1.1/DTD/svg11.dtd"><svg class="icon" width="50px" height="50.00px" viewBox="0 0 1024 1024" version="1.1" xmlns="http://www.w3.org/2000/svg"><path d="M512 967.0656c-251.392 0-455.0656-203.776-455.0656-455.0656S260.608 56.9344 512 56.9344s455.0656 203.776 455.0656 455.0656S763.392 967.0656 512 967.0656z m-92.4672-625.7664c-19.6608 0-35.5328 15.872-35.5328 35.5328v270.2336c0 19.6608 15.872 35.5328 35.5328 35.5328 19.6608 0 35.5328-15.872 35.5328-35.5328V376.9344c0-19.6608-15.872-35.6352-35.5328-35.6352z m184.9344 0c-19.6608 0-35.5328 15.872-35.5328 35.5328v270.2336c0 19.6608 15.872 35.5328 35.5328 35.5328 19.6608 0 35.5328-15.872 35.5328-35.5328V376.9344c0-19.6608-15.872-35.6352-35.5328-35.6352z" fill="#ffffff" /></svg>