<?xml version="1.0" standalone="no"?><!DOCTYPE svg PUBLIC "-//W3C//DTD SVG 1.1//EN" "http://www.w3.org/Graphics/SVG/1.1/DTD/svg11.dtd"><svg class="icon" width="50px" height="50.00px" viewBox="0 0 1024 1024" version="1.1" xmlns="http://www.w3.org/2000/svg"><path d="M765.248 486.688v-0.672h-223.552V262.464h-0.64a31.36 31.36 0 0 0-62.72 0h-0.64v223.552H277.248v0.672a31.328 31.328 0 1 0 0 62.656v0.672h200.448v200.448h0.64a31.36 31.36 0 0 0 62.72 0h0.64v-200.448h223.552v-0.672a31.328 31.328 0 1 0 0-62.656" fill="#ffffff" /><path d="M509.696 959.808c-243.584 0-441.792-198.176-441.792-441.792 0-243.584 198.208-441.76 441.792-441.76 243.584 0 441.76 198.176 441.76 441.76 0 243.616-198.176 441.792-441.76 441.792m0-947.552C230.816 12.256 3.904 239.136 3.904 518.016c0 278.912 226.88 505.792 505.792 505.792 278.88 0 505.76-226.88 505.76-505.792 0-278.88-226.88-505.76-505.76-505.76" fill="#ffffff" /></svg>